<svg width="26" height="61" viewBox="0 0 26 61" fill="none" xmlns="http://www.w3.org/2000/svg">
<g clip-path="url(#clip0_5_52)">
<path d="M9.51062 60.7732C8.15835 61.3174 7.68842 60.8153 7.68842 59.8694C7.67883 53.1316 8.77535 42.0174 10.556 39.5847C11.7037 38.1464 13.1199 38.2047 14.5105 40.0091C16.0546 42.0142 17.4932 45.0235 18.0142 47.9616C18.4682 50.5239 18.3979 52.0238 16.7994 54.1714C14.7151 57.0609 11.7868 59.8565 9.51062 60.7732Z" fill="white"/>
<path d="M8.25066 21.0198C5.37349 21.3664 2.33009 18.7005 0.57502 14.4083C-0.745281 11.1755 0.175413 9.10878 3.644 8.87879C11.3132 8.37021 20.1877 3.97119 24.7368 0.317215C25.162 -0.022916 26.0028 -0.301499 25.9964 0.654106C22.3616 8.59049 12.0741 20.129 8.24747 21.0198" fill="white"/>
<path d="M19.0149 22.4421C20.0283 22.4421 20.8019 22.7758 22.4163 24.1201C23.5928 25.0984 24.798 26.5561 25.3414 27.5473C25.6196 28.0527 25.9425 29.2707 25.7666 29.8214C25.5365 30.5372 24.6445 31.1398 23.2859 31.4864C17.2534 33.2162 10.0893 33.6535 1.79344 32.7918C0.827987 32.6817 0.290915 32.3804 0.185419 31.8848C0.108695 31.4313 0.482727 31.1009 1.31391 30.8968C8.86168 28.7362 13.9447 26.4168 16.5629 23.9452C17.4548 23.0868 18.2572 22.4421 19.0181 22.4421" fill="white"/>
</g>
<defs>
<clipPath id="clip0_5_52">
<rect width="26" height="61" fill="white"/>
</clipPath>
</defs>
</svg>
